<svg
  id="game"
  class="gameStateDefault"
  x="0"
  y="0"
  viewBox="-960 -1180 1920 1080" 
  preserveAspectRatio="xMidYMid slice"
  xmlns="http://www.w3.org/2000/svg"
  xmlns:xlink="http://www.w3.org/1999/xlink" >

  <!-- Styles -->
	<link xmlns="http://www.w3.org/1999/xhtml" rel="stylesheet" href="https://fonts.googleapis.com/css?family=Roboto+Slab" />
  <link xmlns="http://www.w3.org/1999/xhtml" rel="stylesheet" type="text/css" href="../styles/common.css" />
  <link xmlns="http://www.w3.org/1999/xhtml" rel="stylesheet" type="text/css" href="../styles/game.css" />
  <link xmlns="http://www.w3.org/1999/xhtml" rel="stylesheet" type="text/css" href="../styles/outro.css" />
  <link xmlns="http://www.w3.org/1999/xhtml" rel="stylesheet" type="text/css" href="../styles/tile.css" />

  <!-- Debug background -->
  <!-- <rect x="-960" y="-540" width="100%" height="100%" style="fill: rgb(220,220,220);" /> -->

  <!-- Grid, inspired by https://www.jointjs.com/blog/isometric-diagrams, size must be multiply of (1, 0.8602) -->
  <g id="grid" class="ignoreCursor" transform="rotate(30) skewX(-30) scale(140, 120.428)">

    <!-- X -->
    <line x1="-2" x2="2" y1="-2" y2="-2" />
    <line x1="-2" x2="2" y1="-1" y2="-1" />
    <line x1="-2" x2="2" y1="0" y2="0" />
    <line x1="-2" x2="2" y1="1" y2="1" />
    <line x1="-2" x2="2" y1="2" y2="2" />

    <!-- Y -->
    <line x1="-2" x2="-2" y1="-2" y2="2" />
    <line x1="-1" x2="-1" y1="-2" y2="2" />
    <line x1="0" x2="0" y1="-2" y2="2" />
    <line x1="1" x2="1" y1="-2" y2="2" />
    <line x1="2" x2="2" y1="-2" y2="2" />
  </g>

  <!-- Tile indicator -->
  <g id="tileHint" class="ignoreCursor">
    <rect x="0.1" y="0.1" width="0.8" height="0.8" />
    <rect x="0.1" y="0.1" width="0.8" height="0.8" class="animTileHint" />
  </g>

  <!-- Tutorial -->
  <g id="tutorial" class="hidden">

    <!-- Drag view -->
    <circle id="tutorialViewTouch" class="ignoreCursor" cx="0" cy="-800" />
    <svg id="tutorialView" x="-300" y="-950" width="600" height="200">
      <text text-anchor="middle" class="animTutorialViewx">
        <tspan x="50%" dy="3.2em" id="locTutorialView">Drag the view down</tspan>
      </text>
    </svg>

    <!-- Move tile -->
    <svg id="tutorialTile" x="-440" y="-60" width="600" height="200">
      <text text-anchor="middle">
        <tspan x="50%" dy="1.2em" id="locTutorialTile1">Grab the tile</tspan>
        <tspan x="50%" dy="1.2em" id="locTutorialTile2">to its place</tspan>
      </text>
    </svg>
  </g>

  <!-- Debug coordinates cross -->
  <!-- <g stroke="white" stroke-opacity="0.5" stroke-dasharray="8">
    <line x1="-10000" x2="10000" y1="0" y2="0" />
    <line x1="0" x2="0" y1="-10000" y2="10000" />
  </g> -->

  <!-- Tiles -->
  <g id="tiles">

    <svg id="tile01" tileId="1" class="tile" width="256" height="256">
      <g id="tileContent" transform="translate(-128,-152)">
        <image id="tilePicture" href="../data/images/tiles/tile01.png" />
        <text id="tileNumber" x="50%" y="50%">1</text>
        <polygon id="tileArea" points="128,62 240,128 240,190 128,255 16,190 16,128" />
      </g>
    </svg>

    <svg id="tile02" tileId="2" class="tile" width="256" height="256" x="-1.63" y="-279.06">
      <g id="tileContent" transform="translate(-128,-152)">
        <image id="tilePicture" href="../data/images/tiles/tile02.png" />
        <text id="tileNumber" x="50%" y="50%">2</text>
        <polygon id="tileArea" points="128,62 240,128 240,190 128,255 16,190 16,128" />
      </g>
    </svg>

    <!-- Tier 1 -->
    <svg id="tile03" tileId="3" class="tile hidden" width="256" height="256" tileTier="1">
      <g id="tileContent" transform="translate(-128,-152)">
        <image id="tilePicture" href="../data/images/tiles/tile03.png" />
        <text id="tileNumber" x="50%" y="50%">3</text>
        <polygon id="tileArea" points="128,62 240,128 240,190 128,255 16,190 16,128" />
      </g>
    </svg>

    <svg id="tile04" tileId="4" class="tile hidden" width="256" height="256" tileTier="1">
      <g id="tileContent" transform="translate(-128,-152)">
        <image id="tilePicture" href="../data/images/tiles/tile04.png" />
        <text id="tileNumber" x="50%" y="50%">4</text>
        <polygon id="tileArea" points="128,62 240,128 240,190 128,255 16,190 16,128" />
      </g>
    </svg>

    <svg id="tile05" tileId="5" class="tile hidden" width="256" height="256" tileTier="1">
      <g id="tileContent" transform="translate(-128,-152)">
        <image id="tilePicture" href="../data/images/tiles/tile05.png" />
        <text id="tileNumber" x="50%" y="50%">5</text>
        <polygon id="tileArea" points="128,62 240,128 240,190 128,255 16,190 16,128" />
      </g>
    </svg>

    <svg id="tile06" tileId="6" class="tile hidden" width="256" height="256" tileTier="2">
      <g id="tileContent" transform="translate(-128,-152)">
        <image id="tilePicture" href="../data/images/tiles/tile06.png" />
        <text id="tileNumber" x="50%" y="50%">6</text>
        <polygon id="tileArea" points="128,62 240,128 240,190 128,255 16,190 16,128" />
      </g>
    </svg>

    <svg id="tile07" tileId="7" class="tile hidden" width="256" height="256" tileTier="2">
      <g id="tileContent" transform="translate(-128,-152)">
        <image id="tilePicture" href="../data/images/tiles/tile07.png" />
        <text id="tileNumber" x="50%" y="50%">7</text>
        <polygon id="tileArea" points="128,62 240,128 240,190 128,255 16,190 16,128" />
      </g>
    </svg>

    <svg id="tile08" tileId="8" class="tile hidden" width="256" height="256" tileTier="2">
      <g id="tileContent" transform="translate(-128,-152)">
        <image id="tilePicture" href="../data/images/tiles/tile08.png" />
        <text id="tileNumber" x="50%" y="50%">8</text>
        <polygon id="tileArea" points="128,62 240,128 240,190 128,255 16,190 16,128" />
      </g>
    </svg>

    <svg id="tile09" tileId="9" class="tile hidden" width="256" height="256" tileTier="2">
      <g id="tileContent" transform="translate(-128,-152)">
        <image id="tilePicture" href="../data/images/tiles/tile09.png" />
        <text id="tileNumber" x="50%" y="50%">9</text>
        <polygon id="tileArea" points="128,62 240,128 240,190 128,255 16,190 16,128" />
      </g>
    </svg>

    <svg id="tile10" tileId="10" class="tile hidden" width="256" height="256" tileTier="3">
      <g id="tileContent" transform="translate(-128,-152)">
        <image id="tilePicture" href="../data/images/tiles/tile10.png" />
        <text id="tileNumber" x="50%" y="50%">10</text>
        <polygon id="tileArea" points="128,62 240,128 240,190 128,255 16,190 16,128" />
      </g>
    </svg>

    <svg id="tile11" tileId="11" class="tile hidden" width="256" height="256" tileTier="3">
      <g id="tileContent" transform="translate(-128,-152)">
        <image id="tilePicture" href="../data/images/tiles/tile11.png" />
        <text id="tileNumber" x="50%" y="50%">11</text>
        <polygon id="tileArea" points="128,62 240,128 240,190 128,255 16,190 16,128" />
      </g>
    </svg>

    <svg id="tile12" tileId="12" class="tile hidden" width="256" height="256" tileTier="3">
      <g id="tileContent" transform="translate(-128,-152)">
        <image id="tilePicture" href="../data/images/tiles/tile12.png" />
        <text id="tileNumber" x="50%" y="50%">12</text>
        <polygon id="tileArea" points="128,62 240,128 240,190 128,255 16,190 16,128" />
      </g>
    </svg>

    <svg id="tile13" tileId="13" class="tile hidden" width="256" height="256" tileTier="3">
      <g id="tileContent" transform="translate(-128,-152)">
        <image id="tilePicture" href="../data/images/tiles/tile13.png" />
        <text id="tileNumber" x="50%" y="50%">13</text>
        <polygon id="tileArea" points="128,62 240,128 240,190 128,255 16,190 16,128" />
      </g>
    </svg>

    <svg id="tile14" tileId="14" class="tile hidden" width="256" height="256" tileTier="3">
      <g id="tileContent" transform="translate(-128,-152)">
        <image id="tilePicture" href="../data/images/tiles/tile14.png" />
        <text id="tileNumber" x="50%" y="50%">14</text>
        <polygon id="tileArea" points="128,62 240,128 240,190 128,255 16,190 16,128" />
      </g>
    </svg>

    <svg id="tile15" tileId="15" class="tile hidden" width="256" height="256" tileTier="4">
      <g id="tileContent" transform="translate(-128,-152)">
        <image id="tilePicture" href="../data/images/tiles/tile15.png" />
        <text id="tileNumber" x="50%" y="50%">15</text>
        <polygon id="tileArea" points="128,62 240,128 240,190 128,255 16,190 16,128" />
      </g>
    </svg>

    <svg id="tile16" tileId="16" class="tile hidden" width="256" height="256" tileTier="4">
      <g id="tileContent" transform="translate(-128,-152)">
        <image id="tilePicture" href="../data/images/tiles/tile16.png" />
        <text id="tileNumber" x="50%" y="50%">16</text>
        <polygon id="tileArea" points="128,62 240,128 240,190 128,255 16,190 16,128" />
      </g>
    </svg>

    <svg id="tile17" tileId="17" class="tile hidden" width="256" height="256" tileTier="4">
      <g id="tileContent" transform="translate(-128,-152)">
        <image id="tilePicture" href="../data/images/tiles/tile17.png" />
        <text id="tileNumber" x="50%" y="50%">17</text>
        <polygon id="tileArea" points="128,62 240,128 240,190 128,255 16,190 16,128" />
      </g>
    </svg>

    <svg id="tile18" tileId="18" class="tile hidden" width="256" height="256" tileTier="4">
      <g id="tileContent" transform="translate(-128,-152)">
        <image id="tilePicture" href="../data/images/tiles/tile18.png" />
        <text id="tileNumber" x="50%" y="50%">18</text>
        <polygon id="tileArea" points="128,62 240,128 240,190 128,255 16,190 16,128" />
      </g>
    </svg>

    <svg id="tile19" tileId="19" class="tile hidden" width="256" height="256" tileTier="4">
      <g id="tileContent" transform="translate(-128,-152)">
        <image id="tilePicture" href="../data/images/tiles/tile19.png" />
        <text id="tileNumber" x="50%" y="50%">19</text>
        <polygon id="tileArea" points="128,62 240,128 240,190 128,255 16,190 16,128" />
      </g>
    </svg>

    <svg id="tile20" tileId="20" class="tile hidden" width="256" height="256" tileTier="4">
      <g id="tileContent" transform="translate(-128,-152)">
        <image id="tilePicture" href="../data/images/tiles/tile20.png" />
        <text id="tileNumber" x="50%" y="50%">20</text>
        <polygon id="tileArea" points="128,62 240,128 240,190 128,255 16,190 16,128" />
      </g>
    </svg>

    <svg id="tile21" tileId="21" class="tile hidden" width="256" height="256" tileTier="5">
      <g id="tileContent" transform="translate(-128,-152)">
        <image id="tilePicture" href="../data/images/tiles/tile21.png" />
        <text id="tileNumber" x="50%" y="50%">21</text>
        <polygon id="tileArea" points="128,62 240,128 240,190 128,255 16,190 16,128" />
      </g>
    </svg>
  </g>

  <!-- Outro heart -->
  <polygon id="heart" class="ignoreCursor hidden animHeartIn" points="256,76 384,2 512,76 512,108 256,254 0,108 0,76 128,2" transform="scale(1.86) translate(-256,-113)" />

  <!-- Debug cursor -->
  <!-- <circle id="cursor" class="ignoreCursor" style="fill: rgb(255,0,0);" cx="1000" cy="1000" r="10px" /> -->
  <circle id="circle" class="ignoreCursor" style="fill: red;" cx="100000" cy="100000" r="15px" />
  <circle id="cheatRevealAll" class="hiddenx" style="fill: rgba(255, 255, 255, 0);" cx="0" cy="1050" r="30px" />
</svg>