<svg preserveAspectRatio="none" xmlns="http://www.w3.org/2000/svg">
    <link xmlns="http://www.w3.org/1999/xhtml" rel="stylesheet" type="text/css" href="../styles/stars.css" />

    <g class="stars stars1">
        <circle cx="24.53%" cy="93.12%" r="1.3"></circle>
        <circle cx="44.54%" cy="68.88%" r="0.9"></circle>
        <circle cx="68.14%" cy="1.04%" r="1"></circle>
        <circle cx="51.09%" cy="86.78%" r="1.4"></circle>
        <circle cx="76.22%" cy="82.59%" r="0.7"></circle>
        <circle cx="39.67%" cy="78.51%" r="0.6"></circle>
        <circle cx="17.37%" cy="59.17%" r="0.7"></circle>
        <circle cx="36.26%" cy="56.52%" r="0.9"></circle>
        <circle cx="66.84%" cy="26.17%" r="0.7"></circle>
        <circle cx="79.4%" cy="39.14%" r="1.4"></circle>
        <circle cx="5.66%" cy="28.43%" r="1.2"></circle>
        <circle cx="34.09%" cy="21.72%" r="0.7"></circle>
        <circle cx="94.2%" cy="93.98%" r="1.3"></circle>
        <circle cx="98.54%" cy="86.67%" r="1.3"></circle>
        <circle cx="42.02%" cy="68.16%" r="1.4"></circle>
        <circle cx="92.42%" cy="90.47%" r="0.6"></circle>
        <circle cx="39.27%" cy="13.96%" r="1.4"></circle>
        <circle cx="80.89%" cy="88.34%" r="0.9"></circle>
        <circle cx="26.95%" cy="41.54%" r="1.3"></circle>
        <circle cx="25.8%" cy="1.55%" r="1.5"></circle>
        <circle cx="36.03%" cy="3.04%" r="1.4"></circle>
        <circle cx="65.98%" cy="43.91%" r="0.7"></circle>
        <circle cx="15.46%" cy="73.19%" r="1.5"></circle>
        <circle cx="79.79%" cy="79.31%" r="1"></circle>
        <circle cx="13.05%" cy="32.17%" r="0.9"></circle>
        <circle cx="25.48%" cy="4.59%" r="0.9"></circle>
        <circle cx="32.43%" cy="46.57%" r="1.5"></circle>
        <circle cx="30.03%" cy="40.54%" r="0.9"></circle>
        <circle cx="62.98%" cy="54.11%" r="0.9"></circle>
        <circle cx="85.24%" cy="20.04%" r="1.4"></circle>
        <circle cx="65.48%" cy="16.09%" r="1.2"></circle>
        <circle cx="81.76%" cy="90.37%" r="1.4"></circle>
        <circle cx="41.47%" cy="45.68%" r="1.2"></circle>
        <circle cx="79.73%" cy="86.76%" r="0.8"></circle>
        <circle cx="41.37%" cy="81.81%" r="1.3"></circle>
        <circle cx="83.53%" cy="75.65%" r="1.5"></circle>
        <circle cx="40.1%" cy="73.71%" r="0.8"></circle>
        <circle cx="14%" cy="59.33%" r="0.8"></circle>
        <circle cx="2.3%" cy="52.75%" r="1.5"></circle>
        <circle cx="9.56%" cy="82.41%" r="0.9"></circle>
        <circle cx="89.53%" cy="37.83%" r="0.8"></circle>
        <circle cx="86.38%" cy="53.52%" r="0.9"></circle>
        <circle cx="68.24%" cy="83.86%" r="1"></circle>
        <circle cx="85.77%" cy="10.64%" r="0.9"></circle>
        <circle cx="75.8%" cy="27.35%" r="1.3"></circle>
        <circle cx="56.76%" cy="36.85%" r="0.9"></circle>
        <circle cx="83.48%" cy="31.59%" r="1.4"></circle>
        <circle cx="88.01%" cy="77.08%" r="0.9"></circle>
        <circle cx="90.57%" cy="74.2%" r="1.3"></circle>
        <circle cx="74.29%" cy="99.12%" r="1"></circle>
        <circle cx="81.03%" cy="50.16%" r="1.1"></circle>
        <circle cx="55.88%" cy="1.77%" r="0.5"></circle>
        <circle cx="16.91%" cy="54.4%" r="0.8"></circle>
        <circle cx="97.84%" cy="79.34%" r="0.6"></circle>
        <circle cx="11.89%" cy="70.17%" r="1.1"></circle>
        <circle cx="88.32%" cy="43.85%" r="0.9"></circle>
        <circle cx="42.8%" cy="34.8%" r="1.1"></circle>
        <circle cx="71.45%" cy="65.73%" r="1.2"></circle>
        <circle cx="95.13%" cy="41.86%" r="1.1"></circle>
        <circle cx="5.48%" cy="57.52%" r="0.6"></circle>
        <circle cx="40.23%" cy="23.8%" r="0.9"></circle>
        <circle cx="46.31%" cy="47.62%" r="0.8"></circle>
        <circle cx="56.46%" cy="65.81%" r="0.8"></circle>
        <circle cx="48.04%" cy="14.91%" r="1.2"></circle>
        <circle cx="78.06%" cy="4.3%" r="1.4"></circle>
        <circle cx="61.43%" cy="20.8%" r="1"></circle>
        <circle cx="62.58%" cy="42.46%" r="1.4"></circle>
        <circle cx="43.36%" cy="0.7%" r="1"></circle>
        <circle cx="83.54%" cy="90.71%" r="0.7"></circle>
        <circle cx="0.2%" cy="64.57%" r="0.9"></circle>
        <circle cx="47.87%" cy="33.17%" r="1.3"></circle>
        <circle cx="99.94%" cy="76.25%" r="0.6"></circle>
        <circle cx="23.4%" cy="53.01%" r="1.3"></circle>
        <circle cx="97.18%" cy="48.61%" r="0.7"></circle>
        <circle cx="29.7%" cy="61.65%" r="0.8"></circle>
        <circle cx="74.15%" cy="16.98%" r="1.1"></circle>
        <circle cx="5.39%" cy="35.24%" r="1.5"></circle>
        <circle cx="94.83%" cy="60.75%" r="1.3"></circle>
        <circle cx="91.68%" cy="53.33%" r="1.1"></circle>
        <circle cx="84.68%" cy="81.44%" r="1"></circle>
    </g>
    <g class="stars stars2">
        <circle cx="94.15%" cy="9.08%" r="0.5"></circle>
        <circle cx="36.48%" cy="58.23%" r="1.3"></circle>
        <circle cx="61.98%" cy="43.93%" r="0.8"></circle>
        <circle cx="37.41%" cy="82.3%" r="0.9"></circle>
        <circle cx="49.91%" cy="70.34%" r="0.5"></circle>
        <circle cx="50.97%" cy="59.28%" r="0.9"></circle>
        <circle cx="48.59%" cy="13.85%" r="0.6"></circle>
        <circle cx="22.14%" cy="84.75%" r="0.7"></circle>
        <circle cx="21.13%" cy="94.06%" r="0.9"></circle>
        <circle cx="43.31%" cy="78.67%" r="1.1"></circle>
        <circle cx="66.09%" cy="70.11%" r="0.7"></circle>
        <circle cx="84.71%" cy="21.35%" r="0.8"></circle>
        <circle cx="31.46%" cy="63.5%" r="1.3"></circle>
        <circle cx="60.55%" cy="27.3%" r="1.1"></circle>
        <circle cx="21.46%" cy="42.86%" r="0.8"></circle>
        <circle cx="46.23%" cy="17.72%" r="0.5"></circle>
        <circle cx="97.6%" cy="10.2%" r="1"></circle>
        <circle cx="93.51%" cy="69.92%" r="0.8"></circle>
        <circle cx="42.86%" cy="27.49%" r="1.2"></circle>
        <circle cx="9.21%" cy="72.27%" r="0.9"></circle>
        <circle cx="81.5%" cy="71.32%" r="1.2"></circle>
        <circle cx="47.81%" cy="93.23%" r="0.8"></circle>
        <circle cx="27.75%" cy="52.56%" r="0.8"></circle>
        <circle cx="91.95%" cy="46.47%" r="1.1"></circle>
        <circle cx="60.55%" cy="44.56%" r="1"></circle>
        <circle cx="17.63%" cy="89.04%" r="1.3"></circle>
        <circle cx="23.6%" cy="56.01%" r="1.5"></circle>
        <circle cx="61.89%" cy="5.08%" r="1.5"></circle>
        <circle cx="0.12%" cy="3.56%" r="0.7"></circle>
        <circle cx="35.82%" cy="35.83%" r="0.7"></circle>
        <circle cx="12.32%" cy="47.53%" r="1.2"></circle>
        <circle cx="79.27%" cy="75.46%" r="0.6"></circle>
        <circle cx="65.26%" cy="56.42%" r="1.4"></circle>
        <circle cx="24.22%" cy="66.32%" r="0.5"></circle>
        <circle cx="92.49%" cy="89.21%" r="1.3"></circle>
        <circle cx="5.39%" cy="26.95%" r="0.9"></circle>
        <circle cx="33.51%" cy="2.62%" r="0.5"></circle>
        <circle cx="73.04%" cy="74.82%" r="1.4"></circle>
        <circle cx="46.81%" cy="72.81%" r="1.2"></circle>
        <circle cx="28.02%" cy="29.17%" r="0.9"></circle>
        <circle cx="60.66%" cy="78.8%" r="1.5"></circle>
        <circle cx="49.62%" cy="82.54%" r="0.8"></circle>
        <circle cx="74.32%" cy="33.5%" r="1.4"></circle>
        <circle cx="37.09%" cy="16.67%" r="1.2"></circle>
        <circle cx="54.52%" cy="74.86%" r="1"></circle>
        <circle cx="2.94%" cy="24.69%" r="0.5"></circle>
        <circle cx="89.99%" cy="28.38%" r="0.7"></circle>
        <circle cx="23.57%" cy="63.42%" r="1.4"></circle>
        <circle cx="37.1%" cy="22.32%" r="0.9"></circle>
        <circle cx="58.57%" cy="39.79%" r="0.5"></circle>
        <circle cx="26.48%" cy="11.98%" r="0.9"></circle>
        <circle cx="24.28%" cy="70.34%" r="1.4"></circle>
        <circle cx="25.22%" cy="97.74%" r="1.5"></circle>
        <circle cx="28.21%" cy="53.3%" r="1"></circle>
        <circle cx="63.75%" cy="95.59%" r="0.9"></circle>
        <circle cx="56.41%" cy="67.54%" r="0.8"></circle>
        <circle cx="52.93%" cy="27.62%" r="0.7"></circle>
        <circle cx="60.42%" cy="33.27%" r="0.5"></circle>
        <circle cx="43.69%" cy="19.32%" r="1.1"></circle>
        <circle cx="22.95%" cy="67.18%" r="1"></circle>
        <circle cx="9.09%" cy="49.34%" r="1.3"></circle>
        <circle cx="39.95%" cy="47.14%" r="1.2"></circle>
        <circle cx="3.01%" cy="75.38%" r="0.9"></circle>
        <circle cx="67.04%" cy="12.75%" r="0.6"></circle>
        <circle cx="7.93%" cy="85.29%" r="1"></circle>
        <circle cx="70.28%" cy="25.61%" r="1"></circle>
        <circle cx="89.66%" cy="10.72%" r="0.9"></circle>
        <circle cx="21.83%" cy="36.58%" r="1.3"></circle>
        <circle cx="13.73%" cy="39.87%" r="1.1"></circle>
        <circle cx="46.34%" cy="5.64%" r="1.2"></circle>
        <circle cx="11.81%" cy="45.39%" r="1.3"></circle>
        <circle cx="1.03%" cy="19.21%" r="1.5"></circle>
        <circle cx="60.08%" cy="18.99%" r="1.2"></circle>
        <circle cx="48.18%" cy="10.93%" r="0.6"></circle>
        <circle cx="42.79%" cy="75.55%" r="0.7"></circle>
        <circle cx="9.96%" cy="58.93%" r="0.8"></circle>
        <circle cx="59.17%" cy="95.14%" r="1.4"></circle>
        <circle cx="87.81%" cy="29.26%" r="0.8"></circle>
        <circle cx="6.74%" cy="6.93%" r="0.8"></circle>
        <circle cx="77.76%" cy="88.24%" r="0.7"></circle>
    </g>
    <g class="stars stars3">
        <circle cx="44.07%" cy="68.19%" r="0.6"></circle>
        <circle cx="56.67%" cy="77.32%" r="1.3"></circle>
        <circle cx="19.92%" cy="11.83%" r="1.1"></circle>
        <circle cx="58.02%" cy="4.32%" r="1.3"></circle>
        <circle cx="35.79%" cy="40.35%" r="0.7"></circle>
        <circle cx="53.93%" cy="63.76%" r="0.7"></circle>
        <circle cx="5.74%" cy="56.44%" r="1.2"></circle>
        <circle cx="83.48%" cy="65.02%" r="0.6"></circle>
        <circle cx="82.64%" cy="25.01%" r="0.9"></circle>
        <circle cx="4.14%" cy="4.2%" r="0.5"></circle>
        <circle cx="57.32%" cy="94.78%" r="1.1"></circle>
        <circle cx="63.52%" cy="43.9%" r="1.4"></circle>
        <circle cx="51.58%" cy="23.44%" r="0.8"></circle>
        <circle cx="60.94%" cy="43.74%" r="0.6"></circle>
        <circle cx="29.05%" cy="0.75%" r="0.9"></circle>
        <circle cx="31.78%" cy="5.93%" r="0.9"></circle>
        <circle cx="9.54%" cy="22.38%" r="0.5"></circle>
        <circle cx="87.85%" cy="78.87%" r="1"></circle>
        <circle cx="97.68%" cy="75.31%" r="0.7"></circle>
        <circle cx="23.61%" cy="83.99%" r="0.6"></circle>
        <circle cx="80.18%" cy="7.83%" r="0.8"></circle>
        <circle cx="1.09%" cy="49.22%" r="1.3"></circle>
        <circle cx="97.51%" cy="8.65%" r="1.4"></circle>
        <circle cx="42.54%" cy="21.4%" r="1.4"></circle>
        <circle cx="3.99%" cy="4.63%" r="1.1"></circle>
        <circle cx="57.93%" cy="79.04%" r="1.2"></circle>
        <circle cx="68.1%" cy="0.75%" r="1.2"></circle>
        <circle cx="5.39%" cy="19.61%" r="1.4"></circle>
        <circle cx="43.95%" cy="79.54%" r="0.5"></circle>
        <circle cx="60.25%" cy="56.96%" r="0.8"></circle>
        <circle cx="31.63%" cy="75.45%" r="1"></circle>
        <circle cx="45.2%" cy="5.58%" r="1.4"></circle>
        <circle cx="50.93%" cy="38.32%" r="0.9"></circle>
        <circle cx="38.02%" cy="30.31%" r="0.5"></circle>
        <circle cx="70.05%" cy="88.58%" r="1.1"></circle>
        <circle cx="99.75%" cy="58.61%" r="1"></circle>
        <circle cx="56.78%" cy="29.05%" r="0.7"></circle>
        <circle cx="65.62%" cy="9.13%" r="1.4"></circle>
        <circle cx="2.54%" cy="81.71%" r="0.9"></circle>
        <circle cx="55.82%" cy="63.42%" r="1.3"></circle>
        <circle cx="14.42%" cy="95.21%" r="1.1"></circle>
        <circle cx="96.72%" cy="91.67%" r="0.8"></circle>
        <circle cx="25.8%" cy="60.47%" r="1.1"></circle>
        <circle cx="23.5%" cy="29.42%" r="0.5"></circle>
        <circle cx="10.85%" cy="14.09%" r="0.8"></circle>
        <circle cx="33.73%" cy="95.99%" r="1.3"></circle>
        <circle cx="67.02%" cy="92.34%" r="1"></circle>
        <circle cx="12.09%" cy="37.09%" r="0.7"></circle>
        <circle cx="82.88%" cy="73.47%" r="1"></circle>
        <circle cx="49.21%" cy="36.29%" r="1.3"></circle>
        <circle cx="74.57%" cy="85.84%" r="1.4"></circle>
        <circle cx="40.09%" cy="67.75%" r="1.3"></circle>
        <circle cx="62.85%" cy="8.47%" r="1.4"></circle>
        <circle cx="84.41%" cy="25.06%" r="0.5"></circle>
        <circle cx="47.2%" cy="14%" r="0.8"></circle>
        <circle cx="9.29%" cy="55.22%" r="0.6"></circle>
        <circle cx="66.9%" cy="78.97%" r="1.2"></circle>
        <circle cx="97.3%" cy="56.87%" r="1.3"></circle>
        <circle cx="22.05%" cy="86.62%" r="0.7"></circle>
        <circle cx="77.43%" cy="50.77%" r="0.9"></circle>
        <circle cx="81.53%" cy="40.49%" r="1.1"></circle>
        <circle cx="99.43%" cy="4.09%" r="0.5"></circle>
        <circle cx="58.77%" cy="98.8%" r="1.5"></circle>
        <circle cx="10.1%" cy="41.2%" r="1.1"></circle>
        <circle cx="13.9%" cy="13.52%" r="1.1"></circle>
        <circle cx="76.55%" cy="82.01%" r="0.7"></circle>
        <circle cx="32.85%" cy="36.75%" r="0.7"></circle>
        <circle cx="76.81%" cy="74.73%" r="1.4"></circle>
        <circle cx="77.25%" cy="47.47%" r="0.5"></circle>
        <circle cx="1.91%" cy="23.44%" r="0.8"></circle>
        <circle cx="91.42%" cy="49.02%" r="1.1"></circle>
        <circle cx="98.11%" cy="57.69%" r="1"></circle>
        <circle cx="91.38%" cy="26.88%" r="0.9"></circle>
        <circle cx="35.48%" cy="18.19%" r="1.3"></circle>
        <circle cx="45.08%" cy="63.77%" r="1.4"></circle>
        <circle cx="44.11%" cy="98.04%" r="1.3"></circle>
        <circle cx="75.64%" cy="30.91%" r="0.8"></circle>
        <circle cx="14.52%" cy="1.83%" r="0.7"></circle>
        <circle cx="25.59%" cy="83.39%" r="0.8"></circle>
        <circle cx="1.29%" cy="44.4%" r="1.2"></circle>
    </g>
</svg>