<svg class="stars stars1" preserveAspectRatio="none" xmlns="http://www.w3.org/2000/svg">
    <link xmlns="http://www.w3.org/1999/xhtml" rel="stylesheet" type="text/css" href="../styles/stars.css" />

    <circle cx="24.53%" cy="93.12%" r="1.3"></circle>
    <circle cx="44.54%" cy="68.88%" r="0.9"></circle>
    <circle cx="68.14%" cy="1.04%" r="1"></circle>
    <circle cx="51.09%" cy="86.78%" r="1.4"></circle>
    <circle cx="76.22%" cy="82.59%" r="0.7"></circle>
    <circle cx="39.67%" cy="78.51%" r="0.6"></circle>
    <circle cx="17.37%" cy="59.17%" r="0.7"></circle>
    <circle cx="36.26%" cy="56.52%" r="0.9"></circle>
    <circle cx="66.84%" cy="26.17%" r="0.7"></circle>
    <circle cx="79.4%" cy="39.14%" r="1.4"></circle>
    <circle cx="5.66%" cy="28.43%" r="1.2"></circle>
    <circle cx="34.09%" cy="21.72%" r="0.7"></circle>
    <circle cx="94.2%" cy="93.98%" r="1.3"></circle>
    <circle cx="98.54%" cy="86.67%" r="1.3"></circle>
    <circle cx="42.02%" cy="68.16%" r="1.4"></circle>
    <circle cx="92.42%" cy="90.47%" r="0.6"></circle>
    <circle cx="39.27%" cy="13.96%" r="1.4"></circle>
    <circle cx="80.89%" cy="88.34%" r="0.9"></circle>
    <circle cx="26.95%" cy="41.54%" r="1.3"></circle>
    <circle cx="25.8%" cy="1.55%" r="1.5"></circle>
    <circle cx="36.03%" cy="3.04%" r="1.4"></circle>
    <circle cx="65.98%" cy="43.91%" r="0.7"></circle>
    <circle cx="15.46%" cy="73.19%" r="1.5"></circle>
    <circle cx="79.79%" cy="79.31%" r="1"></circle>
    <circle cx="13.05%" cy="32.17%" r="0.9"></circle>
    <circle cx="25.48%" cy="4.59%" r="0.9"></circle>
    <circle cx="32.43%" cy="46.57%" r="1.5"></circle>
    <circle cx="30.03%" cy="40.54%" r="0.9"></circle>
    <circle cx="62.98%" cy="54.11%" r="0.9"></circle>
    <circle cx="85.24%" cy="20.04%" r="1.4"></circle>
    <circle cx="65.48%" cy="16.09%" r="1.2"></circle>
    <circle cx="81.76%" cy="90.37%" r="1.4"></circle>
    <circle cx="41.47%" cy="45.68%" r="1.2"></circle>
    <circle cx="79.73%" cy="86.76%" r="0.8"></circle>
    <circle cx="41.37%" cy="81.81%" r="1.3"></circle>
    <circle cx="83.53%" cy="75.65%" r="1.5"></circle>
    <circle cx="40.1%" cy="73.71%" r="0.8"></circle>
    <circle cx="14%" cy="59.33%" r="0.8"></circle>
    <circle cx="2.3%" cy="52.75%" r="1.5"></circle>
    <circle cx="9.56%" cy="82.41%" r="0.9"></circle>
    <circle cx="89.53%" cy="37.83%" r="0.8"></circle>
    <circle cx="86.38%" cy="53.52%" r="0.9"></circle>
    <circle cx="68.24%" cy="83.86%" r="1"></circle>
    <circle cx="85.77%" cy="10.64%" r="0.9"></circle>
    <circle cx="75.8%" cy="27.35%" r="1.3"></circle>
    <circle cx="56.76%" cy="36.85%" r="0.9"></circle>
    <circle cx="83.48%" cy="31.59%" r="1.4"></circle>
    <circle cx="88.01%" cy="77.08%" r="0.9"></circle>
    <circle cx="90.57%" cy="74.2%" r="1.3"></circle>
    <circle cx="74.29%" cy="99.12%" r="1"></circle>
    <circle cx="81.03%" cy="50.16%" r="1.1"></circle>
    <circle cx="55.88%" cy="1.77%" r="0.5"></circle>
    <circle cx="16.91%" cy="54.4%" r="0.8"></circle>
    <circle cx="97.84%" cy="79.34%" r="0.6"></circle>
    <circle cx="11.89%" cy="70.17%" r="1.1"></circle>
    <circle cx="88.32%" cy="43.85%" r="0.9"></circle>
    <circle cx="42.8%" cy="34.8%" r="1.1"></circle>
    <circle cx="71.45%" cy="65.73%" r="1.2"></circle>
    <circle cx="95.13%" cy="41.86%" r="1.1"></circle>
    <circle cx="5.48%" cy="57.52%" r="0.6"></circle>
    <circle cx="40.23%" cy="23.8%" r="0.9"></circle>
    <circle cx="46.31%" cy="47.62%" r="0.8"></circle>
    <circle cx="56.46%" cy="65.81%" r="0.8"></circle>
    <circle cx="48.04%" cy="14.91%" r="1.2"></circle>
    <circle cx="78.06%" cy="4.3%" r="1.4"></circle>
    <circle cx="61.43%" cy="20.8%" r="1"></circle>
    <circle cx="62.58%" cy="42.46%" r="1.4"></circle>
    <circle cx="43.36%" cy="0.7%" r="1"></circle>
    <circle cx="83.54%" cy="90.71%" r="0.7"></circle>
    <circle cx="0.2%" cy="64.57%" r="0.9"></circle>
    <circle cx="47.87%" cy="33.17%" r="1.3"></circle>
    <circle cx="99.94%" cy="76.25%" r="0.6"></circle>
    <circle cx="23.4%" cy="53.01%" r="1.3"></circle>
    <circle cx="97.18%" cy="48.61%" r="0.7"></circle>
    <circle cx="29.7%" cy="61.65%" r="0.8"></circle>
    <circle cx="74.15%" cy="16.98%" r="1.1"></circle>
    <circle cx="5.39%" cy="35.24%" r="1.5"></circle>
    <circle cx="94.83%" cy="60.75%" r="1.3"></circle>
    <circle cx="91.68%" cy="53.33%" r="1.1"></circle>
    <circle cx="84.68%" cy="81.44%" r="1"></circle>
</svg>