<svg class="stars stars3" preserveAspectRatio="none" xmlns="http://www.w3.org/2000/svg">
    <link xmlns="http://www.w3.org/1999/xhtml" rel="stylesheet" type="text/css" href="../styles/stars.css" />

    <circle cx="44.07%" cy="68.19%" r="0.6"></circle>
    <circle cx="56.67%" cy="77.32%" r="1.3"></circle>
    <circle cx="19.92%" cy="11.83%" r="1.1"></circle>
    <circle cx="58.02%" cy="4.32%" r="1.3"></circle>
    <circle cx="35.79%" cy="40.35%" r="0.7"></circle>
    <circle cx="53.93%" cy="63.76%" r="0.7"></circle>
    <circle cx="5.74%" cy="56.44%" r="1.2"></circle>
    <circle cx="83.48%" cy="65.02%" r="0.6"></circle>
    <circle cx="82.64%" cy="25.01%" r="0.9"></circle>
    <circle cx="4.14%" cy="4.2%" r="0.5"></circle>
    <circle cx="57.32%" cy="94.78%" r="1.1"></circle>
    <circle cx="63.52%" cy="43.9%" r="1.4"></circle>
    <circle cx="51.58%" cy="23.44%" r="0.8"></circle>
    <circle cx="60.94%" cy="43.74%" r="0.6"></circle>
    <circle cx="29.05%" cy="0.75%" r="0.9"></circle>
    <circle cx="31.78%" cy="5.93%" r="0.9"></circle>
    <circle cx="9.54%" cy="22.38%" r="0.5"></circle>
    <circle cx="87.85%" cy="78.87%" r="1"></circle>
    <circle cx="97.68%" cy="75.31%" r="0.7"></circle>
    <circle cx="23.61%" cy="83.99%" r="0.6"></circle>
    <circle cx="80.18%" cy="7.83%" r="0.8"></circle>
    <circle cx="1.09%" cy="49.22%" r="1.3"></circle>
    <circle cx="97.51%" cy="8.65%" r="1.4"></circle>
    <circle cx="42.54%" cy="21.4%" r="1.4"></circle>
    <circle cx="3.99%" cy="4.63%" r="1.1"></circle>
    <circle cx="57.93%" cy="79.04%" r="1.2"></circle>
    <circle cx="68.1%" cy="0.75%" r="1.2"></circle>
    <circle cx="5.39%" cy="19.61%" r="1.4"></circle>
    <circle cx="43.95%" cy="79.54%" r="0.5"></circle>
    <circle cx="60.25%" cy="56.96%" r="0.8"></circle>
    <circle cx="31.63%" cy="75.45%" r="1"></circle>
    <circle cx="45.2%" cy="5.58%" r="1.4"></circle>
    <circle cx="50.93%" cy="38.32%" r="0.9"></circle>
    <circle cx="38.02%" cy="30.31%" r="0.5"></circle>
    <circle cx="70.05%" cy="88.58%" r="1.1"></circle>
    <circle cx="99.75%" cy="58.61%" r="1"></circle>
    <circle cx="56.78%" cy="29.05%" r="0.7"></circle>
    <circle cx="65.62%" cy="9.13%" r="1.4"></circle>
    <circle cx="2.54%" cy="81.71%" r="0.9"></circle>
    <circle cx="55.82%" cy="63.42%" r="1.3"></circle>
    <circle cx="14.42%" cy="95.21%" r="1.1"></circle>
    <circle cx="96.72%" cy="91.67%" r="0.8"></circle>
    <circle cx="25.8%" cy="60.47%" r="1.1"></circle>
    <circle cx="23.5%" cy="29.42%" r="0.5"></circle>
    <circle cx="10.85%" cy="14.09%" r="0.8"></circle>
    <circle cx="33.73%" cy="95.99%" r="1.3"></circle>
    <circle cx="67.02%" cy="92.34%" r="1"></circle>
    <circle cx="12.09%" cy="37.09%" r="0.7"></circle>
    <circle cx="82.88%" cy="73.47%" r="1"></circle>
    <circle cx="49.21%" cy="36.29%" r="1.3"></circle>
    <circle cx="74.57%" cy="85.84%" r="1.4"></circle>
    <circle cx="40.09%" cy="67.75%" r="1.3"></circle>
    <circle cx="62.85%" cy="8.47%" r="1.4"></circle>
    <circle cx="84.41%" cy="25.06%" r="0.5"></circle>
    <circle cx="47.2%" cy="14%" r="0.8"></circle>
    <circle cx="9.29%" cy="55.22%" r="0.6"></circle>
    <circle cx="66.9%" cy="78.97%" r="1.2"></circle>
    <circle cx="97.3%" cy="56.87%" r="1.3"></circle>
    <circle cx="22.05%" cy="86.62%" r="0.7"></circle>
    <circle cx="77.43%" cy="50.77%" r="0.9"></circle>
    <circle cx="81.53%" cy="40.49%" r="1.1"></circle>
    <circle cx="99.43%" cy="4.09%" r="0.5"></circle>
    <circle cx="58.77%" cy="98.8%" r="1.5"></circle>
    <circle cx="10.1%" cy="41.2%" r="1.1"></circle>
    <circle cx="13.9%" cy="13.52%" r="1.1"></circle>
    <circle cx="76.55%" cy="82.01%" r="0.7"></circle>
    <circle cx="32.85%" cy="36.75%" r="0.7"></circle>
    <circle cx="76.81%" cy="74.73%" r="1.4"></circle>
    <circle cx="77.25%" cy="47.47%" r="0.5"></circle>
    <circle cx="1.91%" cy="23.44%" r="0.8"></circle>
    <circle cx="91.42%" cy="49.02%" r="1.1"></circle>
    <circle cx="98.11%" cy="57.69%" r="1"></circle>
    <circle cx="91.38%" cy="26.88%" r="0.9"></circle>
    <circle cx="35.48%" cy="18.19%" r="1.3"></circle>
    <circle cx="45.08%" cy="63.77%" r="1.4"></circle>
    <circle cx="44.11%" cy="98.04%" r="1.3"></circle>
    <circle cx="75.64%" cy="30.91%" r="0.8"></circle>
    <circle cx="14.52%" cy="1.83%" r="0.7"></circle>
    <circle cx="25.59%" cy="83.39%" r="0.8"></circle>
    <circle cx="1.29%" cy="44.4%" r="1.2"></circle>
</svg>