<svg class="stars stars2" preserveAspectRatio="none" xmlns="http://www.w3.org/2000/svg">
    <link xmlns="http://www.w3.org/1999/xhtml" rel="stylesheet" type="text/css" href="../styles/stars.css" />

    <circle cx="94.15%" cy="9.08%" r="0.5"></circle>
    <circle cx="36.48%" cy="58.23%" r="1.3"></circle>
    <circle cx="61.98%" cy="43.93%" r="0.8"></circle>
    <circle cx="37.41%" cy="82.3%" r="0.9"></circle>
    <circle cx="49.91%" cy="70.34%" r="0.5"></circle>
    <circle cx="50.97%" cy="59.28%" r="0.9"></circle>
    <circle cx="48.59%" cy="13.85%" r="0.6"></circle>
    <circle cx="22.14%" cy="84.75%" r="0.7"></circle>
    <circle cx="21.13%" cy="94.06%" r="0.9"></circle>
    <circle cx="43.31%" cy="78.67%" r="1.1"></circle>
    <circle cx="66.09%" cy="70.11%" r="0.7"></circle>
    <circle cx="84.71%" cy="21.35%" r="0.8"></circle>
    <circle cx="31.46%" cy="63.5%" r="1.3"></circle>
    <circle cx="60.55%" cy="27.3%" r="1.1"></circle>
    <circle cx="21.46%" cy="42.86%" r="0.8"></circle>
    <circle cx="46.23%" cy="17.72%" r="0.5"></circle>
    <circle cx="97.6%" cy="10.2%" r="1"></circle>
    <circle cx="93.51%" cy="69.92%" r="0.8"></circle>
    <circle cx="42.86%" cy="27.49%" r="1.2"></circle>
    <circle cx="9.21%" cy="72.27%" r="0.9"></circle>
    <circle cx="81.5%" cy="71.32%" r="1.2"></circle>
    <circle cx="47.81%" cy="93.23%" r="0.8"></circle>
    <circle cx="27.75%" cy="52.56%" r="0.8"></circle>
    <circle cx="91.95%" cy="46.47%" r="1.1"></circle>
    <circle cx="60.55%" cy="44.56%" r="1"></circle>
    <circle cx="17.63%" cy="89.04%" r="1.3"></circle>
    <circle cx="23.6%" cy="56.01%" r="1.5"></circle>
    <circle cx="61.89%" cy="5.08%" r="1.5"></circle>
    <circle cx="0.12%" cy="3.56%" r="0.7"></circle>
    <circle cx="35.82%" cy="35.83%" r="0.7"></circle>
    <circle cx="12.32%" cy="47.53%" r="1.2"></circle>
    <circle cx="79.27%" cy="75.46%" r="0.6"></circle>
    <circle cx="65.26%" cy="56.42%" r="1.4"></circle>
    <circle cx="24.22%" cy="66.32%" r="0.5"></circle>
    <circle cx="92.49%" cy="89.21%" r="1.3"></circle>
    <circle cx="5.39%" cy="26.95%" r="0.9"></circle>
    <circle cx="33.51%" cy="2.62%" r="0.5"></circle>
    <circle cx="73.04%" cy="74.82%" r="1.4"></circle>
    <circle cx="46.81%" cy="72.81%" r="1.2"></circle>
    <circle cx="28.02%" cy="29.17%" r="0.9"></circle>
    <circle cx="60.66%" cy="78.8%" r="1.5"></circle>
    <circle cx="49.62%" cy="82.54%" r="0.8"></circle>
    <circle cx="74.32%" cy="33.5%" r="1.4"></circle>
    <circle cx="37.09%" cy="16.67%" r="1.2"></circle>
    <circle cx="54.52%" cy="74.86%" r="1"></circle>
    <circle cx="2.94%" cy="24.69%" r="0.5"></circle>
    <circle cx="89.99%" cy="28.38%" r="0.7"></circle>
    <circle cx="23.57%" cy="63.42%" r="1.4"></circle>
    <circle cx="37.1%" cy="22.32%" r="0.9"></circle>
    <circle cx="58.57%" cy="39.79%" r="0.5"></circle>
    <circle cx="26.48%" cy="11.98%" r="0.9"></circle>
    <circle cx="24.28%" cy="70.34%" r="1.4"></circle>
    <circle cx="25.22%" cy="97.74%" r="1.5"></circle>
    <circle cx="28.21%" cy="53.3%" r="1"></circle>
    <circle cx="63.75%" cy="95.59%" r="0.9"></circle>
    <circle cx="56.41%" cy="67.54%" r="0.8"></circle>
    <circle cx="52.93%" cy="27.62%" r="0.7"></circle>
    <circle cx="60.42%" cy="33.27%" r="0.5"></circle>
    <circle cx="43.69%" cy="19.32%" r="1.1"></circle>
    <circle cx="22.95%" cy="67.18%" r="1"></circle>
    <circle cx="9.09%" cy="49.34%" r="1.3"></circle>
    <circle cx="39.95%" cy="47.14%" r="1.2"></circle>
    <circle cx="3.01%" cy="75.38%" r="0.9"></circle>
    <circle cx="67.04%" cy="12.75%" r="0.6"></circle>
    <circle cx="7.93%" cy="85.29%" r="1"></circle>
    <circle cx="70.28%" cy="25.61%" r="1"></circle>
    <circle cx="89.66%" cy="10.72%" r="0.9"></circle>
    <circle cx="21.83%" cy="36.58%" r="1.3"></circle>
    <circle cx="13.73%" cy="39.87%" r="1.1"></circle>
    <circle cx="46.34%" cy="5.64%" r="1.2"></circle>
    <circle cx="11.81%" cy="45.39%" r="1.3"></circle>
    <circle cx="1.03%" cy="19.21%" r="1.5"></circle>
    <circle cx="60.08%" cy="18.99%" r="1.2"></circle>
    <circle cx="48.18%" cy="10.93%" r="0.6"></circle>
    <circle cx="42.79%" cy="75.55%" r="0.7"></circle>
    <circle cx="9.96%" cy="58.93%" r="0.8"></circle>
    <circle cx="59.17%" cy="95.14%" r="1.4"></circle>
    <circle cx="87.81%" cy="29.26%" r="0.8"></circle>
    <circle cx="6.74%" cy="6.93%" r="0.8"></circle>
    <circle cx="77.76%" cy="88.24%" r="0.7"></circle>
</svg>